<svg width="24" height="24" viewBox="0 0 24 24" fill="none" xmlns="http://www.w3.org/2000/svg">
<g clip-path="url(#clip0_50_1285)">
<path d="M21.9767 5.79482C21.948 5.76102 21.9007 5.74955 21.8604 5.76799C21.2624 6.03326 20.6334 6.22396 19.9855 6.33663C20.6733 5.8192 21.1858 5.10267 21.4486 4.28105C21.4613 4.24172 21.4482 4.19871 21.4161 4.1731C21.3837 4.1475 21.3388 4.14422 21.3034 4.16532C20.5287 4.62477 19.6897 4.94863 18.8084 5.12827C18.0276 4.31792 16.9372 3.85437 15.8088 3.85437C13.5137 3.85437 11.6468 5.72129 11.6468 8.01611C11.6468 8.29367 11.6737 8.56857 11.7269 8.83547C8.5482 8.63924 5.57596 7.11318 3.55501 4.6344C3.53432 4.609 3.50298 4.59487 3.4702 4.59815C3.43763 4.6006 3.40855 4.61904 3.39216 4.6471C3.02345 5.27965 2.82864 6.00335 2.82864 6.73955C2.82864 8.0155 3.40834 9.20849 4.39547 9.99569C3.88726 9.93465 3.39093 9.77467 2.94335 9.5262C2.91324 9.50919 2.87576 9.5094 2.84565 9.52681C2.81553 9.54402 2.79648 9.57597 2.79566 9.61079L2.79525 9.66405C2.79525 11.4966 4.00279 13.1056 5.72078 13.6398C5.26829 13.7127 4.7988 13.7078 4.33729 13.6197C4.30329 13.6134 4.26765 13.6251 4.2443 13.6513C4.22115 13.6775 4.21336 13.7142 4.22402 13.7473C4.73919 15.3553 6.17061 16.483 7.83679 16.6235C6.44694 17.6418 4.80412 18.1782 3.06831 18.1782C2.74855 18.1782 2.42654 18.1592 2.11109 18.1221C2.06602 18.117 2.02137 18.1438 2.0058 18.1871C1.99023 18.2307 2.00682 18.2794 2.04574 18.3042C3.92413 19.5089 6.09605 20.1453 8.32697 20.1453C15.6244 20.1453 19.985 14.2177 19.985 8.48704C19.985 8.32747 19.982 8.16872 19.9756 8.01038C20.7628 7.43457 21.4386 6.72971 21.9835 5.91384C22.0078 5.87737 22.0052 5.82883 21.9767 5.79482Z" fill="#1D2931"/>
</g>
<defs>
<clipPath id="clip0_50_1285">
<rect width="20" height="20" fill="white" transform="translate(2 2)"/>
</clipPath>
</defs>
</svg>
