<svg width="90" height="36" viewBox="0 0 90 36" fill="none" xmlns="http://www.w3.org/2000/svg">
<path d="M0.423048 33.2643C1.11875 32.0736 1.85459 30.7223 2.63057 29.2105C3.40654 27.6853 4.1959 26.0531 4.99863 24.3138C5.80137 22.5612 6.6041 20.7149 7.40684 18.775C8.20957 16.835 8.98555 14.8482 9.73477 12.8146C10.484 10.7677 11.1931 8.68726 11.862 6.57339C12.531 4.45952 13.133 2.35903 13.6682 0.271925C14.0562 0.646534 14.4575 1.02114 14.8723 1.39575C15.3004 1.75698 15.7151 2.11821 16.1165 2.47944C16.5179 2.8273 16.8925 3.17515 17.2403 3.523C17.6016 3.85747 17.9026 4.17188 18.1434 4.46621C17.6484 5.91113 17.0731 7.43633 16.4175 9.0418C15.762 10.6339 15.0663 12.2594 14.3304 13.9184C13.5946 15.564 12.832 17.2029 12.0426 18.8352C11.2667 20.4674 10.4974 22.0327 9.73477 23.5312C8.98555 25.0296 8.26978 26.4344 7.58745 27.7455C6.90513 29.0433 6.29639 30.1872 5.76123 31.1772C6.56397 31.1772 7.51387 31.1839 8.61094 31.1973C9.70801 31.1973 10.8987 31.204 12.1831 31.2173C13.4675 31.2307 14.8188 31.2508 16.2369 31.2775C17.6551 31.3043 19.0866 31.3377 20.5315 31.3779C20.3175 31.6722 20.07 31.9933 19.789 32.3412C19.5081 32.689 19.207 33.0436 18.8859 33.4048C18.5782 33.7794 18.2571 34.1406 17.9227 34.4885C17.6016 34.8497 17.2805 35.1842 16.9594 35.4919C15.7553 35.425 14.5913 35.338 13.4675 35.231C12.357 35.124 11.28 34.9969 10.2365 34.8497C9.19292 34.7159 8.16943 34.5754 7.16602 34.4283C6.17598 34.2811 5.19263 34.1339 4.21597 33.9868C4.0688 34.2543 3.94839 34.4483 3.85474 34.5687C3.77446 34.6892 3.74102 34.736 3.7544 34.7092L0.423048 33.2643ZM37.2886 27.0632C36.0578 28.2673 34.8938 29.2774 33.7967 30.0935C32.713 30.9096 31.6762 31.5652 30.6861 32.0602C29.6961 32.5552 28.7462 32.9098 27.8364 33.1238C26.94 33.3379 26.0637 33.4449 25.2075 33.4449C24.8462 33.4449 24.4449 33.3111 24.0034 33.0436C23.5619 32.776 23.1538 32.4482 22.7792 32.0602C22.3912 31.6856 22.0701 31.2909 21.8159 30.8762C21.5617 30.4614 21.4346 30.1069 21.4346 29.8125C21.4346 28.7155 21.5885 27.7121 21.8962 26.8023C22.1905 25.8792 22.5852 25.0497 23.0802 24.3138C23.5752 23.578 24.1372 22.9291 24.766 22.3672C25.4082 21.8053 26.0704 21.337 26.7527 20.9624C27.4484 20.5878 28.1375 20.3068 28.8198 20.1195C29.5021 19.9322 30.1309 19.8386 30.7062 19.8386C31.1209 19.8386 31.529 19.959 31.9304 20.1998C32.3451 20.4406 32.7197 20.735 33.0542 21.0828C33.3887 21.4307 33.6562 21.7986 33.8569 22.1866C34.071 22.5612 34.178 22.889 34.178 23.1699C34.178 23.6248 33.984 24.0931 33.596 24.5747C33.2214 25.043 32.6863 25.5246 31.9906 26.0196C31.2949 26.5146 30.4587 27.023 29.482 27.5448C28.5054 28.0532 27.4284 28.5683 26.251 29.0901C26.2109 29.4112 26.1908 29.7256 26.1908 30.0333C26.1908 30.448 26.2778 30.729 26.4517 30.8762C26.639 31.0233 26.9802 31.0969 27.4752 31.0969C28.3582 31.0969 29.1877 30.9498 29.9637 30.6554C30.753 30.3611 31.5089 29.9798 32.2314 29.5115C32.9539 29.0433 33.6496 28.5081 34.3185 27.9061C34.9875 27.304 35.6497 26.6953 36.3053 26.0798L37.2886 27.0632ZM30.2246 22.0461C29.957 22.0461 29.6626 22.1933 29.3416 22.4876C29.0205 22.7686 28.6994 23.1432 28.3783 23.6114C28.0572 24.0797 27.7495 24.6215 27.4551 25.237C27.1608 25.839 26.9066 26.4678 26.6925 27.1234C27.1875 26.8023 27.6692 26.4611 28.1375 26.0999C28.6191 25.7387 29.0472 25.3641 29.4218 24.9761C29.7964 24.5747 30.0975 24.1667 30.3249 23.7519C30.5523 23.3372 30.6661 22.9224 30.6661 22.5077C30.6661 22.3873 30.6259 22.2802 30.5457 22.1866C30.4788 22.0929 30.3717 22.0461 30.2246 22.0461ZM47.6238 30.234C47.6238 30.3143 47.664 30.3544 47.7442 30.3544C47.8646 30.3544 48.0653 30.2674 48.3463 30.0935C48.6272 29.9196 48.9483 29.6988 49.3096 29.4313C49.6708 29.1637 50.0521 28.8626 50.4535 28.5282C50.8682 28.1937 51.2629 27.8659 51.6375 27.5448C52.0121 27.2237 52.3466 26.9294 52.6409 26.6618C52.9486 26.3942 53.1828 26.1869 53.3433 26.0397C53.4637 26.1601 53.6109 26.3207 53.7848 26.5213C53.9721 26.722 54.1394 26.9026 54.2865 27.0632C53.9654 27.3575 53.5774 27.7188 53.1226 28.1469C52.6811 28.5616 52.1994 28.9964 51.6776 29.4513C51.1692 29.9062 50.6408 30.3611 50.0922 30.816C49.5437 31.2575 49.0085 31.6521 48.4868 32C47.965 32.3479 47.47 32.6288 47.0017 32.8429C46.5334 33.0703 46.1254 33.184 45.7775 33.184C45.5367 33.184 45.2691 33.1372 44.9748 33.0436C44.6938 32.9499 44.433 32.8161 44.1921 32.6422C43.9513 32.4816 43.7506 32.2876 43.5901 32.0602C43.4295 31.8328 43.3493 31.5786 43.3493 31.2976C43.3493 31.1906 43.3426 31.0635 43.3292 30.9163C43.3292 30.7558 43.3426 30.5551 43.3693 30.3143C43.3961 30.0601 43.4496 29.759 43.5299 29.4112C43.6102 29.05 43.7306 28.6084 43.8911 28.0867C43.4496 28.5549 42.9278 29.0433 42.3258 29.5517C41.7371 30.0601 41.115 30.5417 40.4594 30.9966C39.8039 31.4515 39.1416 31.8595 38.4727 32.2208C37.8171 32.5954 37.2083 32.8763 36.6464 33.0636C36.5795 33.0904 36.526 33.1038 36.4859 33.1038C36.4458 33.1038 36.4056 33.1038 36.3655 33.1038C36.2317 33.1038 36.0578 33.0369 35.8437 32.9031C35.6163 32.7693 35.3955 32.5887 35.1814 32.3612C34.9674 32.1472 34.7868 31.8997 34.6396 31.6187C34.4791 31.3377 34.3988 31.0568 34.3988 30.7758C34.3988 30.6956 34.4389 30.428 34.5192 29.9731C34.5995 29.5182 34.7935 28.9429 35.1012 28.2472C35.3955 27.5381 35.837 26.7488 36.4257 25.8792C37.0144 24.9961 37.8171 24.0931 38.8339 23.1699C39.3557 22.7017 39.9176 22.2602 40.5196 21.8454C41.028 21.4976 41.61 21.143 42.2656 20.7818C42.9211 20.4206 43.6102 20.1329 44.3326 19.9188C44.3594 19.9188 44.3794 19.9122 44.3928 19.8988C44.4196 19.8854 44.453 19.8921 44.4932 19.9188C44.6537 19.9724 44.841 20.0593 45.0551 20.1797C45.2825 20.2868 45.5033 20.4072 45.7173 20.541C45.9448 20.6614 46.1388 20.7885 46.2993 20.9223C46.4732 21.0427 46.587 21.143 46.6405 21.2233C46.6539 21.25 46.6539 21.2701 46.6405 21.2835L46.6003 21.3236C45.9983 21.6447 45.4297 22.006 44.8945 22.4073C44.3594 22.7953 43.8844 23.1632 43.4697 23.5111C42.988 23.9258 42.5398 24.3339 42.1251 24.7353C41.1484 25.6985 40.4728 26.5347 40.0982 27.2438C39.7236 27.9395 39.5363 28.4412 39.5363 28.7489C39.5363 28.9764 39.6299 29.0901 39.8172 29.0901C40.0045 29.0901 40.2387 29.0165 40.5196 28.8693C40.814 28.7088 41.1417 28.5014 41.503 28.2472C41.8642 27.9796 42.2589 27.6719 42.687 27.3241C43.1285 26.9628 43.5834 26.5882 44.0517 26.2002C44.4664 25.8658 44.8678 25.5045 45.2558 25.1166C45.5902 24.7955 45.9381 24.4275 46.2993 24.0128C46.6605 23.598 46.9683 23.1766 47.2225 22.7485C47.2225 22.7351 47.2292 22.7217 47.2425 22.7083C47.2559 22.695 47.276 22.695 47.3027 22.7083C47.4499 22.8154 47.6171 22.996 47.8044 23.2502C47.9917 23.491 48.1657 23.7586 48.3262 24.0529C48.4868 24.3473 48.6206 24.6349 48.7276 24.9159C48.848 25.1834 48.9082 25.3908 48.9082 25.538C48.6005 26.1668 48.3597 26.7421 48.1857 27.2639C48.0252 27.7723 47.8981 28.2205 47.8044 28.6084C47.7242 28.9964 47.6707 29.3309 47.6439 29.6119C47.6305 29.8794 47.6238 30.0868 47.6238 30.234ZM65.304 29.7724C65.304 30.1069 65.4111 30.2741 65.6251 30.2741C65.8793 30.2741 66.1804 30.1938 66.5282 30.0333C66.8894 29.8728 67.2641 29.6654 67.652 29.4112C68.04 29.1436 68.4347 28.8493 68.8361 28.5282C69.2374 28.2071 69.6121 27.8927 69.9599 27.585C70.3211 27.2772 70.6422 26.9896 70.9232 26.722C71.2041 26.4544 71.4249 26.2404 71.5854 26.0798C71.7192 26.2002 71.8798 26.3541 72.0671 26.5414C72.2544 26.7287 72.4216 26.9026 72.5688 27.0632C72.2209 27.411 71.8263 27.799 71.3848 28.2271C70.9433 28.6553 70.4683 29.0968 69.9599 29.5517C69.4649 29.9932 68.9431 30.428 68.3946 30.8561C67.8594 31.2708 67.3243 31.6455 66.7891 31.9799C66.254 32.301 65.7322 32.5619 65.2238 32.7626C64.7154 32.9633 64.2337 33.0636 63.7789 33.0636C63.538 33.0636 63.2437 32.9499 62.8958 32.7225C62.548 32.5084 62.2135 32.2408 61.8924 31.9197C61.5713 31.5986 61.2971 31.2642 61.0696 30.9163C60.8556 30.5551 60.7485 30.234 60.7485 29.953C60.7485 29.3376 60.7887 28.6954 60.8689 28.0265C60.2669 28.5616 59.6849 29.07 59.123 29.5517C58.5611 30.0333 57.9925 30.4882 57.4172 30.9163C56.8553 31.3311 56.2733 31.7124 55.6712 32.0602C55.0826 32.4214 54.4538 32.7292 53.7848 32.9833C53.5841 33.0636 53.4102 33.1038 53.263 33.1038C53.1292 33.1038 52.9553 33.0369 52.7413 32.9031C52.5272 32.7693 52.3198 32.5954 52.1191 32.3813C51.9185 32.1806 51.7445 31.9532 51.5974 31.699C51.4502 31.4314 51.3766 31.1772 51.3766 30.9364C51.3766 30.3878 51.4836 29.7791 51.6977 29.1102C51.8984 28.4278 52.1994 27.7321 52.6008 27.023C52.9888 26.3006 53.4704 25.5848 54.0457 24.8757C54.6076 24.1533 55.2498 23.4776 55.9723 22.8488C56.6947 22.2066 57.4908 21.6313 58.3604 21.1229C59.23 20.6012 60.1599 20.1864 61.1499 19.8787C61.3372 19.9055 61.578 19.9924 61.8724 20.1396C62.1667 20.2734 62.441 20.4139 62.6952 20.561C63.1768 19.183 63.7253 17.805 64.3408 16.427C64.9696 15.0355 65.6318 13.7043 66.3275 12.4334C67.0366 11.149 67.7725 9.95156 68.5351 8.84111C69.2977 7.71729 70.0603 6.72725 70.8228 5.871C71.5854 5.00137 72.3347 4.29898 73.0705 3.76382C73.8197 3.22866 74.5288 2.90088 75.1978 2.78047C75.4921 2.78047 75.7998 2.88081 76.1209 3.0815C76.4554 3.2688 76.7698 3.50293 77.0641 3.78389C77.3584 4.05147 77.606 4.33242 77.8066 4.62676C78.0207 4.92109 78.1545 5.1686 78.208 5.36929C78.208 5.98472 78.0541 6.70049 77.7464 7.5166C77.4387 8.33272 77.0106 9.21572 76.4621 10.1656C75.9269 11.1021 75.2847 12.0855 74.5355 13.1157C73.7997 14.1459 73.0036 15.1961 72.1474 16.2664C71.2911 17.3233 70.388 18.3803 69.4381 19.4372C68.5016 20.4941 67.5584 21.5176 66.6085 22.5077C66.2071 23.8723 65.886 25.1768 65.6452 26.421C65.4178 27.6519 65.304 28.769 65.304 29.7724ZM75.3784 5.20874C75.1509 5.20874 74.87 5.37598 74.5355 5.71045C74.2144 6.04492 73.8465 6.51318 73.4317 7.11524C73.0304 7.70391 72.6022 8.4063 72.1474 9.22241C71.6925 10.0385 71.2309 10.9282 70.7626 11.8915C70.2944 12.8548 69.8261 13.8783 69.3579 14.962C68.8896 16.0457 68.4481 17.1427 68.0333 18.2532C69.0368 17.0223 69.9867 15.7915 70.8831 14.5606C71.7928 13.3164 72.5889 12.139 73.2712 11.0286C73.9535 9.91812 74.4954 8.90132 74.8967 7.97817C75.2981 7.05503 75.4988 6.29243 75.4988 5.69038C75.4988 5.61011 75.4921 5.50977 75.4787 5.38936C75.4787 5.26895 75.4453 5.20874 75.3784 5.20874ZM56.3335 29.0901C56.775 29.0901 57.4306 28.7824 58.3002 28.1669C59.1698 27.5381 60.1532 26.702 61.2502 25.6584C61.3707 25.043 61.5178 24.4208 61.6917 23.792C61.8657 23.1499 62.0597 22.501 62.2737 21.8454C61.4978 22.3672 60.7352 22.9625 59.9859 23.6315C59.2501 24.3004 58.5945 24.9627 58.0192 25.6183C57.4439 26.2738 56.9757 26.8893 56.6144 27.4646C56.2666 28.0265 56.0927 28.4546 56.0927 28.7489C56.0927 28.9764 56.1729 29.0901 56.3335 29.0901ZM82.904 30.234C82.904 30.3143 82.9441 30.3544 83.0244 30.3544C83.1448 30.3544 83.3455 30.2674 83.6265 30.0935C83.9074 29.9196 84.2285 29.6988 84.5897 29.4313C84.951 29.1637 85.3323 28.8626 85.7336 28.5282C86.1484 28.1937 86.5431 27.8659 86.9177 27.5448C87.2923 27.2237 87.6267 26.9294 87.9211 26.6618C88.2288 26.3942 88.4629 26.1869 88.6235 26.0397C88.7439 26.1601 88.8911 26.3207 89.065 26.5213C89.2523 26.722 89.4195 26.9026 89.5667 27.0632C89.2456 27.3575 88.8576 27.7188 88.4027 28.1469C87.9612 28.5616 87.4796 28.9964 86.9578 29.4513C86.4494 29.9062 85.9209 30.3611 85.3724 30.816C84.8239 31.2575 84.2887 31.6521 83.7669 32C83.2452 32.3479 82.7501 32.6288 82.2819 32.8429C81.8136 33.0703 81.4056 33.184 81.0577 33.184C80.8169 33.184 80.5493 33.1372 80.255 33.0436C79.974 32.9499 79.7131 32.8161 79.4723 32.6422C79.2315 32.4816 79.0308 32.2876 78.8703 32.0602C78.7097 31.8328 78.6294 31.5786 78.6294 31.2976C78.6294 31.1906 78.6227 31.0635 78.6094 30.9163C78.6094 30.7558 78.6227 30.5551 78.6495 30.3143C78.6763 30.0601 78.7298 29.759 78.81 29.4112C78.8903 29.05 79.0107 28.6084 79.1713 28.0867C78.7298 28.5549 78.208 29.0433 77.6059 29.5517C77.0173 30.0601 76.3952 30.5417 75.7396 30.9966C75.084 31.4515 74.4218 31.8595 73.7528 32.2208C73.0973 32.5954 72.4885 32.8763 71.9266 33.0636C71.8597 33.0904 71.8062 33.1038 71.7661 33.1038C71.7259 33.1038 71.6858 33.1038 71.6456 33.1038C71.5119 33.1038 71.3379 33.0369 71.1239 32.9031C70.8964 32.7693 70.6757 32.5887 70.4616 32.3612C70.2475 32.1472 70.0669 31.8997 69.9198 31.6187C69.7592 31.3377 69.6789 31.0568 69.6789 30.7758C69.6789 30.6956 69.7191 30.428 69.7994 29.9731C69.8796 29.5182 70.0736 28.9429 70.3813 28.2472C70.6757 27.5381 71.1172 26.7488 71.7059 25.8792C72.2945 24.9961 73.0973 24.0931 74.1141 23.1699C74.6358 22.7017 75.1977 22.2602 75.7998 21.8454C76.3082 21.4976 76.8902 21.143 77.5457 20.7818C78.2013 20.4206 78.8903 20.1329 79.6128 19.9188C79.6395 19.9188 79.6596 19.9122 79.673 19.8988C79.6997 19.8854 79.7332 19.8921 79.7733 19.9188C79.9339 19.9724 80.1212 20.0593 80.3352 20.1797C80.5627 20.2868 80.7834 20.4072 80.9975 20.541C81.2249 20.6614 81.4189 20.7885 81.5795 20.9223C81.7534 21.0427 81.8671 21.143 81.9206 21.2233C81.934 21.25 81.934 21.2701 81.9206 21.2835L81.8805 21.3236C81.2785 21.6447 80.7099 22.006 80.1747 22.4073C79.6395 22.7953 79.1646 23.1632 78.7498 23.5111C78.2682 23.9258 77.82 24.3339 77.4053 24.7353C76.4286 25.6985 75.753 26.5347 75.3784 27.2438C75.0038 27.9395 74.8164 28.4412 74.8164 28.7489C74.8164 28.9764 74.9101 29.0901 75.0974 29.0901C75.2847 29.0901 75.5188 29.0165 75.7998 28.8693C76.0941 28.7088 76.4219 28.5014 76.7831 28.2472C77.1444 27.9796 77.5391 27.6719 77.9672 27.3241C78.4087 26.9628 78.8636 26.5882 79.3318 26.2002C79.7466 25.8658 80.1479 25.5045 80.5359 25.1166C80.8704 24.7955 81.2183 24.4275 81.5795 24.0128C81.9407 23.598 82.2484 23.1766 82.5026 22.7485C82.5026 22.7351 82.5093 22.7217 82.5227 22.7083C82.5361 22.695 82.5561 22.695 82.5829 22.7083C82.7301 22.8154 82.8973 22.996 83.0846 23.2502C83.2719 23.491 83.4458 23.7586 83.6064 24.0529C83.7669 24.3473 83.9007 24.6349 84.0078 24.9159C84.1282 25.1834 84.1884 25.3908 84.1884 25.538C83.8807 26.1668 83.6398 26.7421 83.4659 27.2639C83.3054 27.7723 83.1783 28.2205 83.0846 28.6084C83.0043 28.9964 82.9508 29.3309 82.9241 29.6119C82.9107 29.8794 82.904 30.0868 82.904 30.234Z" fill="white"/>
</svg>
