<svg display="none">
    <defs>
        <g id="icon-twitter">
            <g xmlns="http://www.w3.org/2000/svg" clip-path="url(#clip0_50_1285)"><path d="M21.9767 5.79482C21.948 5.76102 21.9007 5.74955 21.8604 5.76799C21.2624 6.03326 20.6334 6.22396 19.9855 6.33663C20.6733 5.8192 21.1858 5.10267 21.4486 4.28105C21.4613 4.24172 21.4482 4.19871 21.4161 4.1731C21.3837 4.1475 21.3388 4.14422 21.3034 4.16532C20.5287 4.62477 19.6897 4.94863 18.8084 5.12827C18.0276 4.31792 16.9372 3.85437 15.8088 3.85437C13.5137 3.85437 11.6468 5.72129 11.6468 8.01611C11.6468 8.29367 11.6737 8.56857 11.7269 8.83547C8.5482 8.63924 5.57596 7.11318 3.55501 4.6344C3.53432 4.609 3.50298 4.59487 3.4702 4.59815C3.43763 4.6006 3.40855 4.61904 3.39216 4.6471C3.02345 5.27965 2.82864 6.00335 2.82864 6.73955C2.82864 8.0155 3.40834 9.20849 4.39547 9.99569C3.88726 9.93465 3.39093 9.77467 2.94335 9.5262C2.91324 9.50919 2.87576 9.5094 2.84565 9.52681C2.81553 9.54402 2.79648 9.57597 2.79566 9.61079L2.79525 9.66405C2.79525 11.4966 4.00279 13.1056 5.72078 13.6398C5.26829 13.7127 4.7988 13.7078 4.33729 13.6197C4.30329 13.6134 4.26765 13.6251 4.2443 13.6513C4.22115 13.6775 4.21336 13.7142 4.22402 13.7473C4.73919 15.3553 6.17061 16.483 7.83679 16.6235C6.44694 17.6418 4.80412 18.1782 3.06831 18.1782C2.74855 18.1782 2.42654 18.1592 2.11109 18.1221C2.06602 18.117 2.02137 18.1438 2.0058 18.1871C1.99023 18.2307 2.00682 18.2794 2.04574 18.3042C3.92413 19.5089 6.09605 20.1453 8.32697 20.1453C15.6244 20.1453 19.985 14.2177 19.985 8.48704C19.985 8.32747 19.982 8.16872 19.9756 8.01038C20.7628 7.43457 21.4386 6.72971 21.9835 5.91384C22.0078 5.87737 22.0052 5.82883 21.9767 5.79482Z"/></g><defs xmlns="http://www.w3.org/2000/svg"><clipPath id="clip0_50_1285"><path fill="white" d="M0 0H20V20H0z" transform="translate(2 2)"/></clipPath></defs>
        </g>
        <g id="icon-vk">
            <g xmlns="http://www.w3.org/2000/svg" clip-path="url(#clip0_50_1281)"><path d="M23.0059 16.2108C22.2913 15.3537 21.4504 14.6222 20.6548 13.8455C19.937 13.1454 19.8917 12.7392 20.4687 11.9311C21.0985 11.0492 21.7757 10.2011 22.4112 9.3231C23.0044 8.50259 23.6107 7.68432 23.9229 6.70189C24.1208 6.07687 23.9457 5.8008 23.3048 5.69136C23.1944 5.67221 23.0802 5.67122 22.9678 5.67122L19.1652 5.66674C18.6969 5.65978 18.438 5.86397 18.2723 6.27908C18.0487 6.84018 17.8182 7.40078 17.5518 7.94224C16.9474 9.16989 16.2724 10.3565 15.326 11.3613C15.1174 11.5829 14.8866 11.863 14.5379 11.7476C14.1016 11.5884 13.973 10.8696 13.9802 10.6266L13.9765 6.23754C13.8919 5.61053 13.7529 5.33098 13.1304 5.20911L9.18029 5.20985C8.65301 5.20985 8.38863 5.41355 8.10708 5.74335C7.94467 5.93386 7.89567 6.05747 8.22945 6.12065C8.88506 6.245 9.2544 6.66931 9.3524 7.32667C9.50958 8.37699 9.49864 9.43154 9.40811 10.4861C9.3815 10.794 9.32852 11.1012 9.2064 11.3887C9.01539 11.8406 8.70698 11.9326 8.30182 11.6546C7.93497 11.4029 7.6773 11.0477 7.4251 10.691C6.47775 9.35245 5.7219 7.90891 5.10559 6.392C4.92751 5.95376 4.62035 5.68813 4.15599 5.68092C3.01514 5.66276 1.87403 5.65978 0.733179 5.68191C0.0467252 5.69485 -0.157967 6.02812 0.121588 6.65041C1.36417 9.41438 2.74727 12.1015 4.55269 14.5493C5.47966 15.8056 6.54391 16.9146 7.9188 17.7006C9.477 18.5915 11.1543 18.8596 12.921 18.777C13.7482 18.7382 13.9967 18.5231 14.035 17.6986C14.0608 17.1345 14.1247 16.5736 14.4031 16.0668C14.6761 15.5693 15.0898 15.4746 15.5665 15.784C15.8051 15.9389 16.006 16.1362 16.1958 16.3441C16.6614 16.8534 17.1103 17.3782 17.5936 17.8704C18.1997 18.4873 18.9177 18.8516 19.8206 18.7773L23.3155 18.778C23.8786 18.7412 24.1706 18.0508 23.8473 17.4223C23.6202 16.982 23.3222 16.5901 23.0059 16.2108Z"/></g><defs xmlns="http://www.w3.org/2000/svg"><clipPath id="clip0_50_1281"><path fill="white" d="M0 0H24V24H0z"/></clipPath></defs>
        </g>
        <g id="leada-logo">
            <path xmlns="http://www.w3.org/2000/svg" d="M0.344061 50.9298C1.40594 49.1123 2.52908 47.0498 3.71349 44.7423C4.8979 42.4143 6.10272 39.923 7.32797 37.2683C8.55322 34.5931 9.77846 31.7751 11.0037 28.8141C12.229 25.853 13.4134 22.8206 14.5569 19.7166C15.7005 16.5922 16.7828 13.4168 17.8038 10.1903C18.8249 6.96381 19.7438 3.75775 20.5606 0.572103C21.1528 1.14389 21.7655 1.71567 22.3985 2.28745C23.052 2.83881 23.685 3.39017 24.2976 3.94153C24.9103 4.47247 25.482 5.00341 26.013 5.53435C26.5644 6.04487 27.0238 6.52476 27.3914 6.97402C26.6358 9.17946 25.7577 11.5074 24.7571 13.9579C23.7565 16.388 22.6946 18.8691 21.5715 21.4013C20.4483 23.9131 19.2843 26.4146 18.0795 28.9059C16.8951 31.3973 15.7209 33.7865 14.5569 36.0736C13.4134 38.3608 12.3209 40.505 11.2794 42.5062C10.2379 44.487 9.30879 46.233 8.49195 47.7441C9.7172 47.7441 11.1671 47.7543 12.8416 47.7748C14.5161 47.7748 16.3335 47.785 18.2939 47.8054C20.2543 47.8258 22.3168 47.8564 24.4814 47.8973C26.646 47.9381 28.8311 47.9892 31.0365 48.0504C30.7098 48.4997 30.332 48.9898 29.9032 49.5207C29.4743 50.0517 29.0148 50.5928 28.5247 51.1442C28.0551 51.716 27.565 52.2673 27.0545 52.7983C26.5644 53.3496 26.0743 53.8601 25.5842 54.3298C23.7463 54.2277 21.9697 54.095 20.2543 53.9316C18.5594 53.7683 16.9155 53.5743 15.3227 53.3496C13.7299 53.1454 12.1677 52.931 10.6361 52.7064C9.125 52.4817 7.62407 52.2571 6.13335 52.0325C5.90873 52.4409 5.72494 52.737 5.58199 52.9208C5.45947 53.1046 5.40842 53.1761 5.42884 53.1352L0.344061 50.9298ZM56.6135 41.4647C54.7348 43.3026 52.9582 44.8444 51.2837 46.09C49.6296 47.3357 48.047 48.3363 46.5359 49.0919C45.0247 49.8475 43.5749 50.3886 42.1863 50.7153C40.8181 51.0421 39.4805 51.2054 38.1736 51.2054C37.6222 51.2054 37.0096 51.0012 36.3357 50.5928C35.6618 50.1844 35.039 49.6841 34.4672 49.0919C33.875 48.5201 33.3849 47.9177 32.9969 47.2847C32.6089 46.6516 32.4149 46.1105 32.4149 45.6612C32.4149 43.9867 32.6497 42.4551 33.1194 41.0665C33.5687 39.6575 34.1711 38.3914 34.9267 37.2683C35.6822 36.1451 36.5399 35.1547 37.4997 34.297C38.4799 33.4394 39.4907 32.7246 40.5322 32.1529C41.5941 31.5811 42.6457 31.1522 43.6872 30.8663C44.7286 30.5804 45.6884 30.4375 46.5665 30.4375C47.1996 30.4375 47.8224 30.6213 48.435 30.9889C49.0681 31.3564 49.6398 31.8057 50.1504 32.3366C50.6609 32.8676 51.0693 33.4291 51.3756 34.0214C51.7023 34.5931 51.8657 35.0934 51.8657 35.5223C51.8657 36.2166 51.5696 36.9313 50.9774 37.6665C50.4056 38.3812 49.5888 39.1163 48.5269 39.8719C47.465 40.6275 46.1887 41.4035 44.698 42.1999C43.2073 42.9759 41.5634 43.7621 39.7664 44.5585C39.7051 45.0486 39.6745 45.5285 39.6745 45.9981C39.6745 46.6312 39.8072 47.06 40.0727 47.2847C40.3586 47.5093 40.8793 47.6216 41.6349 47.6216C42.9827 47.6216 44.2488 47.397 45.4332 46.9477C46.638 46.4985 47.7918 45.9165 48.8945 45.2017C49.9972 44.487 51.0591 43.6702 52.0801 42.7512C53.1012 41.8323 54.112 40.9032 55.1126 39.9638L56.6135 41.4647ZM45.8314 33.8069C45.4229 33.8069 44.9737 34.0316 44.4836 34.4808C43.9935 34.9097 43.5034 35.4814 43.0133 36.1962C42.5232 36.9109 42.0535 37.7379 41.6043 38.6773C41.155 39.5962 40.767 40.556 40.4403 41.5566C41.1958 41.0665 41.931 40.5458 42.6457 39.9944C43.3809 39.4431 44.0343 38.8713 44.6061 38.2791C45.1779 37.6665 45.6374 37.0436 45.9845 36.4106C46.3317 35.7775 46.5053 35.1445 46.5053 34.5115C46.5053 34.3277 46.444 34.1643 46.3215 34.0214C46.2194 33.8784 46.056 33.8069 45.8314 33.8069ZM72.3886 46.3045C72.3886 46.427 72.4499 46.4882 72.5724 46.4882C72.7562 46.4882 73.0625 46.3555 73.4913 46.09C73.9202 45.8246 74.4103 45.4876 74.9616 45.0792C75.513 44.6708 76.095 44.2113 76.7076 43.7008C77.3406 43.1903 77.9431 42.69 78.5148 42.1999C79.0866 41.7098 79.5971 41.2605 80.0464 40.8521C80.5161 40.4437 80.8734 40.1272 81.1185 39.9025C81.3023 40.0863 81.5269 40.3314 81.7924 40.6377C82.0783 40.944 82.3335 41.2197 82.5581 41.4647C82.0681 41.914 81.4758 42.4653 80.7815 43.1188C80.1077 43.7519 79.3725 44.4155 78.5761 45.1098C77.8001 45.8041 76.9935 46.4985 76.1562 47.1928C75.319 47.8666 74.5021 48.4691 73.7057 49C72.9093 49.5309 72.1538 49.9598 71.439 50.2865C70.7243 50.6337 70.1015 50.8072 69.5705 50.8072C69.203 50.8072 68.7945 50.7358 68.3453 50.5928C67.9164 50.4499 67.5182 50.2457 67.1507 49.9802C66.7831 49.7351 66.4768 49.439 66.2317 49.0919C65.9867 48.7447 65.8642 48.3567 65.8642 47.9279C65.8642 47.7645 65.8539 47.5705 65.8335 47.3459C65.8335 47.1009 65.8539 46.7946 65.8948 46.427C65.9356 46.039 66.0173 45.5795 66.1398 45.0486C66.2624 44.4972 66.4461 43.8233 66.6912 43.0269C66.0173 43.7416 65.2209 44.487 64.302 45.263C63.4035 46.039 62.4539 46.7741 61.4533 47.4684C60.4526 48.1627 59.4418 48.7856 58.4208 49.3369C57.4202 49.9087 56.491 50.3376 55.6333 50.6235C55.5312 50.6643 55.4496 50.6847 55.3883 50.6847C55.327 50.6847 55.2658 50.6847 55.2045 50.6847C55.0003 50.6847 54.7348 50.5826 54.4081 50.3784C54.0609 50.1742 53.724 49.8985 53.3973 49.5514C53.0705 49.2246 52.7949 48.8468 52.5702 48.418C52.3252 47.9892 52.2026 47.5603 52.2026 47.1315C52.2026 47.009 52.2639 46.6006 52.3864 45.9063C52.509 45.2119 52.8051 44.3339 53.2747 43.272C53.724 42.1897 54.3979 40.9848 55.2964 39.6575C56.1949 38.3097 57.4202 36.9313 58.9721 35.5223C59.7686 34.8076 60.6262 34.1337 61.5452 33.5006C62.3211 32.9697 63.2095 32.4285 64.2101 31.8772C65.2107 31.3258 66.2624 30.8868 67.3651 30.56C67.4059 30.56 67.4366 30.5498 67.457 30.5294C67.4978 30.509 67.5489 30.5192 67.6101 30.56C67.8552 30.6417 68.1411 30.7744 68.4678 30.9582C68.815 31.1216 69.1519 31.3054 69.4786 31.5096C69.8258 31.6934 70.1219 31.8874 70.3669 32.0916C70.6324 32.2754 70.806 32.4285 70.8877 32.5511C70.9081 32.5919 70.9081 32.6225 70.8877 32.6429L70.8264 32.7042C69.9075 33.1943 69.0396 33.7457 68.2228 34.3583C67.4059 34.9505 66.681 35.5121 66.0479 36.043C65.3128 36.6761 64.6287 37.2989 63.9957 37.9115C62.5049 39.3818 61.4737 40.6581 60.9019 41.7404C60.3301 42.8023 60.0442 43.5681 60.0442 44.0377C60.0442 44.3849 60.1872 44.5585 60.4731 44.5585C60.759 44.5585 61.1163 44.4462 61.5452 44.2215C61.9944 43.9765 62.4947 43.66 63.0461 43.272C63.5974 42.8636 64.1999 42.3939 64.8533 41.8629C65.5272 41.3116 66.2215 40.7398 66.9362 40.1476C67.5693 39.6371 68.1819 39.0857 68.7741 38.4935C69.2846 38.0034 69.8156 37.4418 70.3669 36.8088C70.9183 36.1757 71.388 35.5325 71.776 34.879C71.776 34.8586 71.7862 34.8382 71.8066 34.8178C71.827 34.7973 71.8577 34.7973 71.8985 34.8178C72.1231 34.9811 72.3784 35.2568 72.6643 35.6448C72.9502 36.0124 73.2156 36.4208 73.4607 36.8701C73.7057 37.3193 73.9099 37.7584 74.0733 38.1872C74.2571 38.5956 74.349 38.9121 74.349 39.1368C73.8793 40.0965 73.5117 40.9746 73.2463 41.771C73.0012 42.547 72.8072 43.2311 72.6643 43.8233C72.5418 44.4155 72.4601 44.9261 72.4192 45.3549C72.3988 45.7633 72.3886 46.0798 72.3886 46.3045ZM99.3747 45.5999C99.3747 46.1105 99.538 46.3657 99.8648 46.3657C100.253 46.3657 100.712 46.2432 101.243 45.9981C101.795 45.7531 102.366 45.4366 102.959 45.0486C103.551 44.6402 104.153 44.1909 104.766 43.7008C105.378 43.2107 105.95 42.7308 106.481 42.2611C107.032 41.7915 107.523 41.3524 107.951 40.944C108.38 40.5356 108.717 40.2089 108.962 39.9638C109.166 40.1476 109.411 40.3824 109.697 40.6683C109.983 40.9542 110.239 41.2197 110.463 41.4647C109.932 41.9957 109.33 42.5879 108.656 43.2413C107.982 43.8948 107.257 44.5687 106.481 45.263C105.726 45.9369 104.929 46.6006 104.092 47.254C103.275 47.8871 102.458 48.4588 101.641 48.9694C100.825 49.4595 100.028 49.8577 99.2521 50.164C98.4762 50.4703 97.741 50.6235 97.0467 50.6235C96.6791 50.6235 96.2299 50.4499 95.6989 50.1027C95.168 49.776 94.6575 49.3676 94.1674 48.8775C93.6773 48.3874 93.2586 47.8769 92.9115 47.3459C92.5848 46.7946 92.4214 46.3045 92.4214 45.8756C92.4214 44.9363 92.4827 43.9561 92.6052 42.935C91.6862 43.7519 90.7979 44.5278 89.9403 45.263C89.0826 45.9981 88.2147 46.6925 87.3366 47.3459C86.4789 47.979 85.5906 48.561 84.6717 49.0919C83.7732 49.6433 82.8134 50.1129 81.7924 50.5009C81.4861 50.6235 81.2206 50.6847 80.996 50.6847C80.7918 50.6847 80.5263 50.5826 80.1995 50.3784C79.8728 50.1742 79.5563 49.9087 79.25 49.582C78.9437 49.2757 78.6782 48.9285 78.4536 48.5405C78.2289 48.1321 78.1166 47.7441 78.1166 47.3765C78.1166 46.5393 78.28 45.6101 78.6067 44.5891C78.913 43.5476 79.3725 42.4858 79.9851 41.4035C80.5773 40.3007 81.3125 39.2082 82.1906 38.1259C83.0482 37.0232 84.0284 35.992 85.1312 35.0322C86.2339 34.052 87.4489 33.1739 88.7763 32.3979C90.1036 31.6015 91.5229 30.9684 93.034 30.4988C93.3199 30.5396 93.6875 30.6723 94.1367 30.897C94.586 31.1012 95.0046 31.3156 95.3926 31.5402C96.1278 29.4369 96.965 27.3335 97.9044 25.2302C98.8641 23.1064 99.875 21.0746 100.937 19.1346C102.019 17.1742 103.142 15.3465 104.306 13.6516C105.47 11.9363 106.634 10.4251 107.798 9.1182C108.962 7.79085 110.106 6.71876 111.229 5.90193C112.372 5.0851 113.455 4.58479 114.476 4.401C114.925 4.401 115.395 4.55416 115.885 4.86047C116.395 5.14636 116.875 5.50372 117.325 5.93256C117.774 6.34098 118.152 6.76981 118.458 7.21907C118.785 7.66833 118.989 8.04611 119.071 8.35242C119.071 9.29178 118.836 10.3843 118.366 11.63C117.896 12.8756 117.243 14.2234 116.406 15.6733C115.589 17.1027 114.609 18.6037 113.465 20.1761C112.342 21.7485 111.127 23.3515 109.82 24.9852C108.513 26.5984 107.135 28.2116 105.685 29.8249C104.255 31.4381 102.816 33.0003 101.366 34.5115C100.753 36.5944 100.263 38.5854 99.8954 40.4845C99.5482 42.3632 99.3747 44.0684 99.3747 45.5999ZM114.752 8.10737C114.404 8.10737 113.976 8.36263 113.465 8.87315C112.975 9.38367 112.413 10.0984 111.78 11.0173C111.168 11.9159 110.514 12.9879 109.82 14.2336C109.126 15.4793 108.421 16.8373 107.706 18.3076C106.992 19.7779 106.277 21.34 105.562 22.9941C104.847 24.6482 104.174 26.3227 103.541 28.0176C105.072 26.1389 106.522 24.2602 107.89 22.3815C109.279 20.4824 110.494 18.6853 111.535 16.9904C112.577 15.2955 113.404 13.7435 114.016 12.3345C114.629 10.9254 114.935 9.76146 114.935 8.84252C114.935 8.72 114.925 8.56684 114.905 8.38305C114.905 8.19927 114.854 8.10737 114.752 8.10737ZM85.6825 44.5585C86.3564 44.5585 87.357 44.0888 88.6844 43.1494C90.0117 42.1897 91.5127 40.9134 93.1872 39.3205C93.371 38.3812 93.5956 37.4316 93.8611 36.4718C94.1265 35.4916 94.4226 34.5012 94.7494 33.5006C93.565 34.297 92.401 35.2058 91.2574 36.2268C90.1343 37.2478 89.1336 38.2587 88.2555 39.2593C87.3775 40.2599 86.6627 41.1993 86.1114 42.0774C85.5804 42.935 85.315 43.5885 85.315 44.0377C85.315 44.3849 85.4375 44.5585 85.6825 44.5585ZM126.238 46.3045C126.238 46.427 126.299 46.4882 126.422 46.4882C126.606 46.4882 126.912 46.3555 127.341 46.09C127.77 45.8246 128.26 45.4876 128.811 45.0792C129.363 44.6708 129.945 44.2113 130.557 43.7008C131.19 43.1903 131.793 42.69 132.364 42.1999C132.936 41.7098 133.447 41.2605 133.896 40.8521C134.366 40.4437 134.723 40.1272 134.968 39.9025C135.152 40.0863 135.377 40.3314 135.642 40.6377C135.928 40.944 136.183 41.2197 136.408 41.4647C135.918 41.914 135.325 42.4653 134.631 43.1188C133.957 43.7519 133.222 44.4155 132.426 45.1098C131.65 45.8041 130.843 46.4985 130.006 47.1928C129.169 47.8666 128.352 48.4691 127.555 49C126.759 49.5309 126.003 49.9598 125.289 50.2865C124.574 50.6337 123.951 50.8072 123.42 50.8072C123.053 50.8072 122.644 50.7358 122.195 50.5928C121.766 50.4499 121.368 50.2457 121 49.9802C120.633 49.7351 120.326 49.439 120.081 49.0919C119.836 48.7447 119.714 48.3567 119.714 47.9279C119.714 47.7645 119.704 47.5705 119.683 47.3459C119.683 47.1009 119.704 46.7946 119.744 46.427C119.785 46.039 119.867 45.5795 119.989 45.0486C120.112 44.4972 120.296 43.8233 120.541 43.0269C119.867 43.7416 119.071 44.487 118.152 45.263C117.253 46.039 116.304 46.7741 115.303 47.4684C114.302 48.1627 113.291 48.7856 112.27 49.3369C111.27 49.9087 110.341 50.3376 109.483 50.6235C109.381 50.6643 109.299 50.6847 109.238 50.6847C109.177 50.6847 109.115 50.6847 109.054 50.6847C108.85 50.6847 108.584 50.5826 108.258 50.3784C107.911 50.1742 107.574 49.8985 107.247 49.5514C106.92 49.2246 106.644 48.8468 106.42 48.418C106.175 47.9892 106.052 47.5603 106.052 47.1315C106.052 47.009 106.114 46.6006 106.236 45.9063C106.359 45.2119 106.655 44.3339 107.124 43.272C107.574 42.1897 108.248 40.9848 109.146 39.6575C110.045 38.3097 111.27 36.9313 112.822 35.5223C113.618 34.8076 114.476 34.1337 115.395 33.5006C116.171 32.9697 117.059 32.4285 118.06 31.8772C119.06 31.3258 120.112 30.8868 121.215 30.56C121.256 30.56 121.286 30.5498 121.307 30.5294C121.347 30.509 121.398 30.5192 121.46 30.56C121.705 30.6417 121.991 30.7744 122.317 30.9582C122.665 31.1216 123.002 31.3054 123.328 31.5096C123.675 31.6934 123.972 31.8874 124.217 32.0916C124.482 32.2754 124.656 32.4285 124.737 32.5511C124.758 32.5919 124.758 32.6225 124.737 32.6429L124.676 32.7042C123.757 33.1943 122.889 33.7457 122.072 34.3583C121.256 34.9505 120.531 35.5121 119.898 36.043C119.162 36.6761 118.478 37.2989 117.845 37.9115C116.355 39.3818 115.323 40.6581 114.752 41.7404C114.18 42.8023 113.894 43.5681 113.894 44.0377C113.894 44.3849 114.037 44.5585 114.323 44.5585C114.609 44.5585 114.966 44.4462 115.395 44.2215C115.844 43.9765 116.344 43.66 116.896 43.272C117.447 42.8636 118.049 42.3939 118.703 41.8629C119.377 41.3116 120.071 40.7398 120.786 40.1476C121.419 39.6371 122.032 39.0857 122.624 38.4935C123.134 38.0034 123.665 37.4418 124.217 36.8088C124.768 36.1757 125.238 35.5325 125.626 34.879C125.626 34.8586 125.636 34.8382 125.656 34.8178C125.677 34.7973 125.707 34.7973 125.748 34.8178C125.973 34.9811 126.228 35.2568 126.514 35.6448C126.8 36.0124 127.065 36.4208 127.31 36.8701C127.555 37.3193 127.76 37.7584 127.923 38.1872C128.107 38.5956 128.199 38.9121 128.199 39.1368C127.729 40.0965 127.361 40.9746 127.096 41.771C126.851 42.547 126.657 43.2311 126.514 43.8233C126.391 44.4155 126.31 44.9261 126.269 45.3549C126.248 45.7633 126.238 46.0798 126.238 46.3045Z"/>
        </g>
        <g id="icon-facebook">
            <path xmlns="http://www.w3.org/2000/svg" d="M17.1932 5.31986L15.3105 5.32069C13.8344 5.32069 13.5486 6.02216 13.5486 7.0516V9.32144H17.0691L17.0678 12.8768H13.5486V22H9.87671V12.8768H6.80688V9.32144H9.87671V6.69972C9.87671 3.65692 11.7354 2 14.4499 2L17.1934 2.00436L17.1932 5.31986Z"/>
        </g>
        <g id="icon-instagram">
            <path xmlns="http://www.w3.org/2000/svg" d="M2.56707 0H17.4329C18.8447 0 19.9998 1.04523 19.9998 2.56687V17.4331C19.9998 18.9548 18.8447 20 17.4329 20H2.56707C1.15488 20 0 18.9548 0 17.4331V2.56687C0 1.04523 1.15488 0 2.56707 0ZM14.5691 2.22209C14.0738 2.22209 13.6691 2.62703 13.6691 3.12254V5.27768C13.6691 5.77299 14.0738 6.17814 14.5691 6.17814H16.8296C17.3249 6.17814 17.7301 5.77299 17.7301 5.27768V3.12254C17.7301 2.62703 17.3249 2.22209 16.8296 2.22209H14.5691ZM17.7395 8.45793H15.9793C16.1458 9.00169 16.2359 9.5777 16.2359 10.1736C16.2359 13.5003 13.4522 16.1969 10.019 16.1969C6.58596 16.1969 3.80266 13.5003 3.80266 10.1736C3.80266 9.57729 3.8926 9.00149 4.05935 8.45793H2.2225V16.9062C2.2225 17.3434 2.58021 17.7013 3.01761 17.7013H16.9448C17.3822 17.7013 17.7399 17.3436 17.7399 16.9062V8.45793H17.7395ZM10.0188 6.06458C7.80061 6.06458 6.00216 7.80697 6.00216 9.95657C6.00216 12.1062 7.80061 13.8486 10.0188 13.8486C12.2372 13.8486 14.0358 12.1062 14.0358 9.95657C14.0358 7.80697 12.2374 6.06458 10.0188 6.06458Z"/>
        </g>
        <g id="icon-arrow">
            <path xmlns="http://www.w3.org/2000/svg" d="M17.1601 4.99879C17.1534 4.82719 17.0827 4.62885 16.9651 4.50376L13.1251 0.423572C12.8649 0.18974 12.3659 0.0932123 12.0751 0.363572C11.7886 0.629852 11.7971 1.14628 12.0825 1.41362L14.7825 4.27876H1.56009C1.16246 4.27876 0.840088 4.60113 0.840088 4.99879C0.840088 5.39645 1.16246 5.71882 1.56009 5.71882H14.7825L12.0825 8.58397C11.8368 8.83009 11.7914 9.36468 12.0751 9.63401C12.3587 9.90331 12.8756 9.81727 13.1251 9.57398L16.9651 5.49382C17.0965 5.35419 17.1605 5.19036 17.1601 4.99879Z"/>
        </g>
    </defs>
</svg>
