<svg width="18" height="10" viewBox="0 0 18 10" fill="none" xmlns="http://www.w3.org/2000/svg">
<path d="M17.1601 4.99879C17.1534 4.82719 17.0827 4.62885 16.9651 4.50376L13.1251 0.423572C12.8649 0.18974 12.3659 0.0932123 12.0751 0.363572C11.7886 0.629852 11.7971 1.14628 12.0825 1.41362L14.7825 4.27876H1.56009C1.16246 4.27876 0.840088 4.60113 0.840088 4.99879C0.840088 5.39645 1.16246 5.71882 1.56009 5.71882H14.7825L12.0825 8.58397C11.8368 8.83009 11.7914 9.36468 12.0751 9.63401C12.3587 9.90331 12.8756 9.81727 13.1251 9.57398L16.9651 5.49382C17.0965 5.35419 17.1605 5.19036 17.1601 4.99879Z" fill="#1D2931"/>
</svg>
