<svg width="24" height="24" viewBox="0 0 24 24" fill="none" xmlns="http://www.w3.org/2000/svg">
<g clip-path="url(#clip0_50_1281)">
<path d="M23.0059 16.2108C22.2913 15.3537 21.4504 14.6222 20.6548 13.8455C19.937 13.1454 19.8917 12.7392 20.4687 11.9311C21.0985 11.0492 21.7757 10.2011 22.4112 9.3231C23.0044 8.50259 23.6107 7.68432 23.9229 6.70189C24.1208 6.07687 23.9457 5.8008 23.3048 5.69136C23.1944 5.67221 23.0802 5.67122 22.9678 5.67122L19.1652 5.66674C18.6969 5.65978 18.438 5.86397 18.2723 6.27908C18.0487 6.84018 17.8182 7.40078 17.5518 7.94224C16.9474 9.16989 16.2724 10.3565 15.326 11.3613C15.1174 11.5829 14.8866 11.863 14.5379 11.7476C14.1016 11.5884 13.973 10.8696 13.9802 10.6266L13.9765 6.23754C13.8919 5.61053 13.7529 5.33098 13.1304 5.20911L9.18029 5.20985C8.65301 5.20985 8.38863 5.41355 8.10708 5.74335C7.94467 5.93386 7.89567 6.05747 8.22945 6.12065C8.88506 6.245 9.2544 6.66931 9.3524 7.32667C9.50958 8.37699 9.49864 9.43154 9.40811 10.4861C9.3815 10.794 9.32852 11.1012 9.2064 11.3887C9.01539 11.8406 8.70698 11.9326 8.30182 11.6546C7.93497 11.4029 7.6773 11.0477 7.4251 10.691C6.47775 9.35245 5.7219 7.90891 5.10559 6.392C4.92751 5.95376 4.62035 5.68813 4.15599 5.68092C3.01514 5.66276 1.87403 5.65978 0.733179 5.68191C0.0467252 5.69485 -0.157967 6.02812 0.121588 6.65041C1.36417 9.41438 2.74727 12.1015 4.55269 14.5493C5.47966 15.8056 6.54391 16.9146 7.9188 17.7006C9.477 18.5915 11.1543 18.8596 12.921 18.777C13.7482 18.7382 13.9967 18.5231 14.035 17.6986C14.0608 17.1345 14.1247 16.5736 14.4031 16.0668C14.6761 15.5693 15.0898 15.4746 15.5665 15.784C15.8051 15.9389 16.006 16.1362 16.1958 16.3441C16.6614 16.8534 17.1103 17.3782 17.5936 17.8704C18.1997 18.4873 18.9177 18.8516 19.8206 18.7773L23.3155 18.778C23.8786 18.7412 24.1706 18.0508 23.8473 17.4223C23.6202 16.982 23.3222 16.5901 23.0059 16.2108Z" fill="#1D2931"/>
</g>
<defs>
<clipPath id="clip0_50_1281">
<rect width="24" height="24" fill="white"/>
</clipPath>
</defs>
</svg>
